PathFileType	4	(X/Y/Z)	c:/Users/goper/Files/vsCode/490R/osim_files/C07/C07_Fast_07.trc
DataRate	CameraRate	NumFrames	NumMarkers	Units                	OrigDataRate	OrigDataStartFrame	OrigNumFrames
250.00	250.00	7	36	mm	250.0	850	2266
                Frame#	Time	LPSIS			LASIS			LTH1			LTH2			LTH3			LTH4			LLFE			LMFE			LSH1			LSH2			LSH3			LSH4			LLMAL			LMMAL			LCAL			LMTP5			LTOE			LMTP1			RPSIS			RASIS			RTH1			RTH2			RTH3			RTH4			RLFE			RMFE			RSH1			RSH2			RSH3			RSH4			RLMAL			RMMAL			RCAL			RMTP1			RTOE			RMTP5		
		X1	Y1	Z1	X2	Y2	Z2	X3	Y3	Z3	X4	Y4	Z4	X5	Y5	Z5	X6	Y6	Z6	X7	Y7	Z7	X8	Y8	Z8	X9	Y9	Z9	X10	Y10	Z10	X11	Y11	Z11	X12	Y12	Z12	X13	Y13	Z13	X14	Y14	Z14	X15	Y15	Z15	X16	Y16	Z16	X17	Y17	Z17	X18	Y18	Z18	X19	Y19	Z19	X20	Y20	Z20	X21	Y21	Z21	X22	Y22	Z22	X23	Y23	Z23	X24	Y24	Z24	X25	Y25	Z25	X26	Y26	Z26	X27	Y27	Z27	X28	Y28	Z28	X29	Y29	Z29	X30	Y30	Z30	X31	Y31	Z31	X32	Y32	Z32	X33	Y33	Z33	X34	Y34	Z34	X35	Y35	Z35	X36	Y36	Z36

850	3.39600	-130.90321	1014.00092	337.59369	-295.02957	993.23108	417.18860	-289.26132	793.47827	467.58011	-328.13693	724.96631	471.11456	-367.94580	660.51227	464.17404	-397.27072	765.18945	453.56522	-392.30508	546.07910	442.92957	-404.50299	534.21649	325.93546	-284.38861	417.26559	457.38849	-244.79855	389.64410	442.69852	-319.31613	396.91760	447.79413	-290.11407	361.67270	442.07159	-135.24278	250.28186	406.42331	-174.54976	244.22629	337.69998	-56.04969	241.27260	353.27753	-171.28748	110.64887	442.50970	-224.19498	79.94152	392.97433	-194.55753	84.40836	339.04556	-137.66890	1025.57324	236.57014	-300.79962	992.05457	162.93790	-263.81247	834.45490	108.82974	-268.80463	755.73663	115.93026	-272.20105	675.13611	130.33263	-337.94879	762.50665	149.26125	-262.95483	499.99673	171.47813	-259.42792	514.39197	283.07941	-185.21642	323.11758	169.58487	-209.64998	271.55646	170.44353	-246.52029	318.73914	171.34767	-240.48567	274.92429	177.69547	-166.59564	105.70059	226.98024	-197.31757	116.31705	302.84244	-112.94011	54.54829	276.73129	-323.12640	40.34914	299.16876	-345.96066	51.06530	249.47404	-296.29987	39.89690	191.39206
851	3.40000	-135.65475	1015.00519	337.69925	-300.12109	994.26709	416.62451	-295.43091	794.79901	467.39929	-334.74536	726.54114	470.89914	-375.00522	662.36713	463.56992	-403.65964	767.18134	452.61353	-399.94452	547.90381	442.10941	-411.65158	536.25995	325.38138	-293.89160	416.66537	457.02811	-254.98549	388.23145	442.36136	-329.31866	397.01688	447.12521	-300.78711	361.15704	441.33273	-148.02487	246.56487	406.17383	-187.26424	241.55974	337.27914	-68.82881	235.42691	353.27856	-187.97285	107.69007	441.91446	-241.56013	78.76365	391.95898	-211.61072	82.58607	338.16165	-142.04594	1026.31348	236.57344	-304.74384	992.30084	162.29874	-266.35016	834.86969	108.67265	-270.71509	756.21698	115.49735	-273.51804	675.41272	129.62111	-339.70627	762.20715	148.35855	-262.96707	500.38516	171.06801	-260.30133	514.68134	282.64233	-185.03638	323.52823	169.55730	-209.24239	272.12219	170.17531	-246.47040	319.01755	170.99745	-240.14925	275.41559	177.32059	-166.55301	106.07645	226.90578	-197.35199	116.63528	302.68958	-113.01833	54.96289	276.50314	-323.19809	40.46868	299.03067	-345.82928	50.98882	249.47147	-296.28204	39.90617	191.32976
852	3.40400	-140.29219	1015.89404	337.72681	-304.96130	995.16486	415.96484	-300.65897	795.94135	467.19547	-341.34390	728.01184	470.59189	-381.86487	664.18219	463.04056	-409.55026	769.02350	451.93198	-407.18701	549.74103	441.44739	-418.50357	538.06104	324.80661	-303.45789	416.02234	456.60815	-265.09448	386.66876	441.99390	-339.28091	397.16333	446.39108	-311.33813	361.44144	440.11911	-160.96970	242.68221	405.77640	-200.01231	238.79176	336.80365	-81.90510	229.41893	353.32721	-204.85254	105.08569	441.12640	-259.11151	77.83003	391.09546	-228.61324	80.78612	337.54691	-146.37094	1027.03394	236.57898	-308.86227	992.53430	161.68341	-268.81311	835.25269	108.31588	-272.57886	756.57397	115.11442	-274.86487	675.73737	129.20854	-342.69077	762.29028	147.30402	-262.98517	500.77011	170.66350	-261.31781	515.00366	282.17590	-184.84384	324.00369	169.54559	-208.86473	272.68506	169.94868	-246.05406	319.66122	170.56017	-239.91153	275.86130	176.99515	-166.52199	106.38732	226.86285	-197.27197	116.99284	302.50064	-113.11825	55.42029	276.34430	-323.22543	40.56525	298.95169	-345.71658	50.95479	249.44174	-296.26404	39.92218	191.26224
853	3.40800	-145.07651	1016.69366	337.84509	-309.90012	995.94330	415.24921	-307.02353	797.30927	467.01187	-347.53305	729.36786	470.23367	-388.51123	665.83783	462.72476	-415.65750	770.86438	451.23029	-414.51093	551.34900	440.64725	-425.50406	539.90375	324.09369	-313.51837	416.25171	456.90298	-274.86157	384.74557	441.57550	-349.06235	397.10388	445.69733	-322.19351	359.90768	440.02243	-174.16658	238.70543	405.50549	-212.99786	235.89835	336.33282	-95.05135	223.32936	353.28745	-221.88853	102.26978	440.46710	-276.57111	76.64014	390.06073	-246.37480	79.26295	336.41910	-150.85423	1027.57629	236.62178	-312.56561	992.83356	160.91373	-271.46252	835.73169	107.89047	-274.50668	756.93158	114.66667	-276.10129	676.15448	128.70862	-345.04263	762.08929	146.34785	-263.05368	501.19104	170.35397	-261.83691	515.08673	282.06210	-184.54225	324.55060	169.44537	-208.68855	273.07452	169.88527	-245.77081	320.14578	170.17737	-239.69214	276.30069	176.70200	-166.49472	106.64381	226.86362	-197.07211	117.36651	302.25986	-113.23899	55.75446	276.37894	-323.25137	40.68420	298.88428	-345.66083	50.94020	249.43475	-296.25735	39.92850	191.20444
854	3.41200	-150.51656	1016.99371	338.64883	-315.00339	996.65851	414.70517	-313.71179	798.58771	466.82767	-353.80124	730.75073	469.87497	-395.20209	667.35718	462.12198	-421.71756	772.50922	450.39069	-421.63562	552.94354	439.97824	-432.17239	541.41174	323.57346	-322.33609	414.44229	455.93289	-285.15311	383.24634	441.10300	-358.93420	397.01932	444.97028	-332.90155	359.23682	439.34503	-187.35507	234.55396	405.14218	-226.15405	232.94107	335.87576	-108.53550	217.03969	353.21628	-238.99644	99.55400	439.84186	-294.25558	75.65557	389.16650	-263.65817	77.37004	335.68231	-155.29298	1028.08093	236.72942	-316.67389	992.85626	160.29872	-273.83353	836.14117	107.54306	-276.40079	757.32294	114.26939	-277.56079	676.52026	128.24582	-347.35150	761.84760	145.49419	-263.14270	501.59433	169.99548	-263.49576	515.55609	281.38940	-184.22487	325.10089	169.37903	-208.42519	273.48669	169.69196	-245.46692	320.61383	169.80327	-239.36032	276.78549	176.29428	-166.46416	106.99976	226.81746	-196.81810	117.74672	301.99597	-113.38334	56.00595	276.45523	-323.20447	40.64778	298.90906	-345.68185	50.97517	249.40900	-296.23666	39.93512	191.16138
855	3.41600	-154.52000	1017.95422	338.11444	-319.82703	997.34509	413.95303	-319.55554	799.52216	466.60870	-360.04974	732.03088	469.50812	-401.70316	668.67114	461.57004	-427.64017	774.07428	449.69559	-428.62857	554.32483	439.33334	-438.70648	542.93591	322.95276	-331.73663	413.38004	455.58804	-295.33847	381.23639	440.78558	-368.72629	396.81378	444.24130	-343.35983	358.41040	438.67493	-200.75119	230.31801	404.74695	-239.30775	229.87325	335.39548	-122.08862	210.84062	353.05859	-256.02002	96.78769	439.10504	-312.01572	74.63055	388.23376	-281.19443	75.55875	334.82803	-159.71451	1028.47815	236.78835	-320.50308	993.04260	159.50214	-276.39536	836.39563	107.42279	-278.42508	757.60760	113.91290	-279.10828	676.68805	127.64612	-349.96402	761.60168	144.53941	-263.29272	501.96307	169.69225	-264.46405	515.82245	280.99860	-183.96474	325.66495	169.35620	-208.07037	273.95502	169.49142	-245.31511	320.83780	169.50632	-239.08505	277.23663	175.95222	-166.46741	107.27010	226.86398	-196.57568	118.12398	301.73785	-113.50244	56.26395	276.54019	-323.25909	40.71868	298.84650	-346.23706	51.22372	249.43976	-296.23444	39.92421	191.11743
856	3.42000	-159.34570	1018.48749	338.28571	-324.96054	997.93866	413.29828	-325.44809	800.60858	466.34106	-366.10001	733.11078	469.13547	-408.09482	670.12665	461.13351	-433.54309	775.42731	448.72708	-435.49405	555.61835	438.65186	-445.18903	544.22748	322.34396	-341.09927	412.30981	455.30908	-305.36880	379.22742	440.31625	-378.40125	396.46152	443.55664	-354.04657	357.61703	437.97733	-214.27393	226.05637	404.47339	-252.55463	226.73474	334.96271	-135.91017	204.42500	352.99091	-273.29419	94.00434	438.41550	-329.44208	73.35596	387.25903	-298.47943	73.63647	333.82281	-164.08856	1028.82556	236.85512	-324.52783	993.03467	158.92807	-279.15720	836.72778	107.24905	-280.35791	757.86285	113.58479	-280.21509	676.95300	127.13082	-351.57285	761.27844	143.72214	-263.48074	502.30466	169.41319	-265.58942	515.97980	280.60446	-183.79594	326.06717	169.39880	-207.72769	274.48404	169.28105	-245.02225	321.26999	169.18893	-238.83055	277.63705	175.64301	-166.48654	107.57079	226.90649	-196.41057	118.48871	301.51419	-113.61656	56.52812	276.70822	-323.26907	40.77821	298.81644	-345.66269	50.97142	249.39409	-296.22491	39.92229	191.06239
